<?xml version="1.0" encoding="UTF-8"?>
<!DOCTYPE svg PUBLIC "-//W3C//DTD SVG 1.1//EN" "http://www.w3.org/Graphics/SVG/1.1/DTD/svg11.dtd">
<svg version="1.1" xmlns="http://www.w3.org/2000/svg" xmlns:xlink="http://www.w3.org/1999/xlink" x="0px" y="0px" width="83" height="83" viewBox="0, 0, 83, 83">
  <g id="Layer1">
    <path d="M7.781,1.5 L75.88,1.5 C79.166,1.5 81.83,4.013 81.83,7.113 L81.83,75.887 C81.83,78.987 79.166,81.5 75.88,81.5 L7.781,81.5 C4.494,81.5 1.83,78.987 1.83,75.887 L1.83,7.113 C1.83,4.013 4.494,1.5 7.781,1.5 z" fill-opacity="0" stroke="#DC4C26" stroke-width="1" stroke-miterlimit="2"/>
  </g>
  <g id="Layer2">
    <path d="M36.346,35.634 L36.346,32.945 C38.879,32.698 40.646,32.286 41.646,31.708 C42.646,31.129 43.394,29.762 43.887,27.606 L46.654,27.606 L46.654,55.394 L42.912,55.394 L42.912,35.634 L36.346,35.634 z" fill="#DC4C26"/>
  </g>
  <defs/>
</svg>
