<?xml version="1.0" encoding="UTF-8"?>
<!DOCTYPE svg PUBLIC "-//W3C//DTD SVG 1.1//EN" "http://www.w3.org/Graphics/SVG/1.1/DTD/svg11.dtd">
<svg version="1.1" xmlns="http://www.w3.org/2000/svg" xmlns:xlink="http://www.w3.org/1999/xlink" x="0px" y="0px" width="83" height="83" viewBox="0, 0, 83, 83">
  <g id="Layer1">
    <path d="M7.781,1.5 L75.88,1.5 C79.166,1.5 81.83,4.013 81.83,7.113 L81.83,75.887 C81.83,78.987 79.166,81.5 75.88,81.5 L7.781,81.5 C4.494,81.5 1.83,78.987 1.83,75.887 L1.83,7.113 C1.83,4.013 4.494,1.5 7.781,1.5 z" fill-opacity="0" stroke="#DC4C26" stroke-width="1" stroke-miterlimit="2"/>
  </g>
  <g id="Layer2">
    <path d="M33.345,49.227 C34.208,47.447 35.894,45.829 38.402,44.374 L42.143,42.211 C43.819,41.237 44.995,40.405 45.67,39.717 C46.736,38.639 47.268,37.404 47.268,36.014 C47.268,34.39 46.781,33.101 45.807,32.146 C44.832,31.191 43.533,30.714 41.909,30.714 C39.506,30.714 37.843,31.623 36.921,33.442 C36.427,34.416 36.154,35.768 36.102,37.495 L32.536,37.495 C32.575,35.066 33.023,33.085 33.881,31.552 C35.401,28.85 38.083,27.498 41.929,27.498 C45.125,27.498 47.46,28.362 48.934,30.09 C50.409,31.818 51.146,33.741 51.146,35.858 C51.146,38.093 50.36,40.003 48.788,41.588 C47.879,42.51 46.248,43.627 43.897,44.939 L41.227,46.421 C39.954,47.122 38.954,47.791 38.226,48.428 C36.927,49.558 36.109,50.812 35.771,52.189 L51.01,52.189 L51.01,55.502 L31.854,55.502 C31.984,53.098 32.481,51.007 33.345,49.227 z" fill="#DC4C26"/>
  </g>
  <defs/>
</svg>
