<?xml version="1.0" encoding="UTF-8"?>
<!DOCTYPE svg PUBLIC "-//W3C//DTD SVG 1.1//EN" "http://www.w3.org/Graphics/SVG/1.1/DTD/svg11.dtd">
<svg version="1.1" xmlns="http://www.w3.org/2000/svg" xmlns:xlink="http://www.w3.org/1999/xlink" x="0px" y="0px" width="130" height="130" viewBox="0, 0, 130, 130">
  <g id="фон">
    <g>
      <path d="M65.282,127.869 C30.585,127.869 2.458,99.742 2.458,65.046 C2.458,30.349 30.585,2.222 65.282,2.222 C99.978,2.222 128.105,30.349 128.105,65.046 C128.105,99.742 99.978,127.869 65.282,127.869 z" fill="#DA5A32"/>
      <path d="M65.282,127.869 C30.585,127.869 2.458,99.742 2.458,65.046 C2.458,30.349 30.585,2.222 65.282,2.222 C99.978,2.222 128.105,30.349 128.105,65.046 C128.105,99.742 99.978,127.869 65.282,127.869 z" fill-opacity="0" stroke="#FFFFFF" stroke-width="1"/>
    </g>
    <path d="M34.769,22.955 L97.442,22.955 C97.808,22.955 98.105,23.808 98.105,24.859 L98.105,107.051 C98.105,108.103 97.808,108.955 97.442,108.955 L34.769,108.955 C34.402,108.955 34.105,108.103 34.105,107.051 L34.105,24.859 C34.105,23.808 34.402,22.955 34.769,22.955 z" fill-opacity="0" stroke="#FFFFFF" stroke-width="1"/>
    <g>
      <path d="M37.706,22.955 L94.504,22.955 C94.836,22.955 95.105,23.778 95.105,24.793 L95.105,104.118 C95.105,105.133 94.836,105.955 94.504,105.955 L37.706,105.955 C37.374,105.955 37.105,105.133 37.105,104.118 L37.105,24.793 C37.105,23.778 37.374,22.955 37.706,22.955 z" fill="#FFFFFF"/>
      <path d="M37.706,22.955 L94.504,22.955 C94.836,22.955 95.105,23.778 95.105,24.793 L95.105,104.118 C95.105,105.133 94.836,105.955 94.504,105.955 L37.706,105.955 C37.374,105.955 37.105,105.133 37.105,104.118 L37.105,24.793 C37.105,23.778 37.374,22.955 37.706,22.955 z" fill-opacity="0" stroke="#FFFFFF" stroke-width="1"/>
    </g>
    <path d="M43.105,46.518 L89.105,46.654" fill-opacity="0" stroke="#DA5A32" stroke-width="1"/>
    <path d="M43.105,59.733 L89.105,59.869" fill-opacity="0" stroke="#DA5A32" stroke-width="1"/>
    <path d="M43.105,72.948 L89.105,73.028" fill-opacity="0" stroke="#DA5A32" stroke-width="1"/>
    <path d="M57.342,34.86 L76.107,34.967" fill-opacity="0" stroke="#DA5A32" stroke-width="1"/>
    <path d="M69.869,82.45 L87.776,82.45 L87.776,98.396 L69.869,98.396 z" fill-opacity="0" stroke="#DA5A32" stroke-width="1"/>
    <path d="M43.105,85.386 L61.87,85.493" fill-opacity="0" stroke="#DA5A32" stroke-width="1"/>
    <path d="M43.105,95.929 L61.87,96.036" fill-opacity="0" stroke="#DA5A32" stroke-width="1"/>
    <path d="M62.811,9.734 L66.752,9.734 L66.752,13.121 L62.811,13.121 z" fill="#DA5A32"/>
  </g>
  <g id="Layer 2">
    <path d="M39.9,24.395 L42.605,24.395 L42.605,27.71 L39.9,27.71 z" fill="#D95A32"/>
    <path d="M49.869,24.395 L52.573,24.395 L52.573,27.71 L49.869,27.71 z" fill="#D95A32"/>
    <path d="M49.869,24.395 L52.573,24.395 L52.573,27.71 L49.869,27.71 z" fill="#D95A32"/>
    <path d="M59.837,24.395 L62.541,24.395 L62.541,27.71 L59.837,27.71 z" fill="#D95A32"/>
    <path d="M69.856,24.395 L72.561,24.395 L72.561,27.71 L69.856,27.71 z" fill="#D95A32"/>
    <path d="M79.824,24.395 L82.529,24.395 L82.529,27.71 L79.824,27.71 z" fill="#D95A32"/>
    <path d="M89.792,24.395 L92.497,24.395 L92.497,27.71 L89.792,27.71 z" fill="#D95A32"/>
  </g>
  <g id="Layer 3">
    <path d="M41.233,26.154 L41.189,20.072" fill-opacity="0" stroke="#FFFFFF" stroke-width="1"/>
    <path d="M51.217,26.154 L51.173,20.072" fill-opacity="0" stroke="#FFFFFF" stroke-width="1"/>
    <path d="M61.201,26.154 L61.157,20.072" fill-opacity="0" stroke="#FFFFFF" stroke-width="1"/>
    <path d="M71.185,26.154 L71.141,20.072" fill-opacity="0" stroke="#FFFFFF" stroke-width="1"/>
    <path d="M81.169,26.154 L81.125,20.072" fill-opacity="0" stroke="#FFFFFF" stroke-width="1"/>
    <path d="M91.153,26.154 L91.109,20.072" fill-opacity="0" stroke="#FFFFFF" stroke-width="1"/>
  </g>
  <defs/>
</svg>
