<?xml version="1.0" encoding="UTF-8"?>
<!DOCTYPE svg PUBLIC "-//W3C//DTD SVG 1.1//EN" "http://www.w3.org/Graphics/SVG/1.1/DTD/svg11.dtd">
<svg version="1.1" xmlns="http://www.w3.org/2000/svg" xmlns:xlink="http://www.w3.org/1999/xlink" x="0px" y="0px" width="85" height="82" viewBox="0, 0, 85, 82">
  <g id="Layer 1">
    <path d="M43.338,67.775 C44.321,67.193 44.646,65.924 44.064,64.94 L44.048,64.913 C43.465,63.93 42.196,63.605 41.212,64.187 C40.229,64.769 39.904,66.039 40.486,67.022 L40.502,67.049 C41.085,68.033 42.354,68.358 43.338,67.775 z M25.347,60.385 C26.444,60.064 27.073,58.914 26.751,57.817 L26.742,57.787 C26.421,56.69 25.271,56.061 24.174,56.383 C23.077,56.704 22.449,57.854 22.77,58.951 L22.779,58.981 C23.101,60.078 24.25,60.707 25.347,60.385 z M61.111,60.419 C62.252,60.351 63.121,59.37 63.052,58.229 L63.051,58.207 C62.982,57.066 62.002,56.197 60.861,56.266 C59.72,56.335 58.851,57.315 58.919,58.456 L58.921,58.478 C58.989,59.619 59.97,60.488 61.111,60.419 z M62.055,24.019 L62.088,23.998 C63.055,23.389 63.345,22.111 62.736,21.144 C62.127,20.177 60.849,19.887 59.882,20.496 L59.849,20.517 C58.881,21.126 58.591,22.404 59.201,23.371 C59.81,24.338 61.087,24.628 62.055,24.019 z M24.97,24.29 C25.105,24.254 25.25,24.244 25.375,24.182 C26.36,23.698 26.787,23.003 26.68,21.902 C26.497,20.773 25.435,20.007 24.306,20.19 C24.171,20.226 24.027,20.236 23.901,20.298 C22.916,20.782 22.49,21.477 22.597,22.578 C22.779,23.706 23.842,24.473 24.97,24.29 z M43.423,16.709 C44.395,16.108 44.696,14.832 44.094,13.86 L44.079,13.835 C43.477,12.862 42.202,12.562 41.23,13.163 C40.258,13.764 39.957,15.04 40.559,16.012 L40.574,16.037 C41.176,17.009 42.451,17.31 43.423,16.709 z M34.68,76.537 C30.427,81.103 20.429,80.016 21.218,71.001 C15.74,74.88 5.446,68.961 9.575,61.257 C0.386,61.724 0.304,50.02 4.318,47.774 C-0.455,45.801 -1.995,36.429 4.69,34.747 C-1.429,31.481 4.372,21.085 9.51,22.509 C5.173,17.972 13.236,9.515 17.23,12.74 C16.043,9.271 18.377,5.953 20.619,4.702 C22.552,3.624 27.184,2.805 30.084,5.53 C31.713,-0.808 39.27,-1.902 43.52,3.393 C46.501,-1.288 55.229,-0.916 56.201,5.898 C61.331,1.665 69.645,6.755 67.452,12.809 C73.223,9.304 80.723,15.253 75.676,22.419 C82.92,21.761 86.291,31.289 79.445,35.127 C86.313,36.44 87.008,46.295 79.018,47.99 C85.938,52.324 80.842,63.001 73.715,60.776 C78.212,70.065 66.803,76.161 62.132,71.617 C63.461,78.533 53.898,82.407 48.439,76.694 C48.956,83 35.002,84.516 34.68,76.537 z" fill="#FFFFFF"/>
  </g>
  <defs/>
</svg>
