<?xml version="1.0" encoding="UTF-8"?>
<!DOCTYPE svg PUBLIC "-//W3C//DTD SVG 1.1//EN" "http://www.w3.org/Graphics/SVG/1.1/DTD/svg11.dtd">
<svg version="1.1" xmlns="http://www.w3.org/2000/svg" xmlns:xlink="http://www.w3.org/1999/xlink" x="0px" y="0px" width="128" height="161" viewBox="0, 0, 128, 161">
  <g id="Layer1">
    <path d="M63.691,117.781 C32.501,117.781 7.216,91.695 7.216,59.516 C7.216,27.337 32.501,1.251 63.691,1.251 C94.882,1.251 120.166,27.337 120.166,59.516 C120.166,91.695 94.882,117.781 63.691,117.781 z" fill-opacity="0" stroke="#FFFFFF" stroke-width="1" stroke-linecap="round" stroke-miterlimit="2"/>
    <path d="M83.492,114.808 C92.421,113.529 94.374,130.635 105.808,124.459" fill-opacity="0" stroke="#FFFFFF" stroke-width="1" stroke-linecap="round" stroke-miterlimit="2"/>
    <path d="M112.538,114.942 L116.149,115.841 C118.54,116.435 119.997,118.855 119.401,121.246 L114.965,139.072 C114.37,141.463 111.95,142.92 109.559,142.324 L105.948,141.425 C103.557,140.831 102.101,138.41 102.696,136.02 L107.132,118.193 C107.728,115.802 110.147,114.346 112.538,114.942 z" fill-opacity="0" stroke="#FFFFFF" stroke-width="1" stroke-linecap="round" stroke-miterlimit="2"/>
    <path d="M55.941,130.396 C71.153,129.688 93.43,144.256 108.842,136.55" fill-opacity="0" stroke="#FFFFFF" stroke-width="1" stroke-linecap="round" stroke-miterlimit="2"/>
    <path d="M22.221,161 C32.932,151.17 39.962,130.371 45.129,114.808" fill-opacity="0" stroke="#FFFFFF" stroke-width="1" stroke-linecap="round" stroke-miterlimit="2"/>
    <path d="M95.307,158.592 C89.059,151.819 92.01,125.562 83.53,114.739" fill-opacity="0" stroke="#FFFFFF" stroke-width="1" stroke-linecap="round" stroke-miterlimit="2"/>
  </g>
  <defs/>
</svg>
