<?xml version="1.0" encoding="UTF-8"?>
<!DOCTYPE svg PUBLIC "-//W3C//DTD SVG 1.1//EN" "http://www.w3.org/Graphics/SVG/1.1/DTD/svg11.dtd">
<svg version="1.1" xmlns="http://www.w3.org/2000/svg" xmlns:xlink="http://www.w3.org/1999/xlink" x="0px" y="0px" width="83" height="83" viewBox="0, 0, 83, 83">
  <g id="Layer1">
    <path d="M7.781,1.5 L75.88,1.5 C79.166,1.5 81.83,4.013 81.83,7.113 L81.83,75.887 C81.83,78.987 79.166,81.5 75.88,81.5 L7.781,81.5 C4.494,81.5 1.83,78.987 1.83,75.887 L1.83,7.113 C1.83,4.013 4.494,1.5 7.781,1.5 z" fill-opacity="0" stroke="#FFFFFF" stroke-width="1" stroke-miterlimit="2"/>
  </g>
  <g id="Layer2">
    <path d="M33.978,53.134 C32.49,51.322 31.747,49.116 31.747,46.518 L35.41,46.518 C35.566,48.324 35.904,49.636 36.424,50.454 C37.333,51.923 38.976,52.657 41.354,52.657 C43.199,52.657 44.68,52.163 45.797,51.175 C46.914,50.188 47.473,48.915 47.473,47.356 C47.473,45.433 46.885,44.089 45.709,43.322 C44.534,42.556 42.9,42.172 40.808,42.172 C40.574,42.172 40.337,42.176 40.097,42.182 C39.857,42.189 39.613,42.198 39.366,42.211 L39.366,39.113 C39.73,39.152 40.035,39.178 40.282,39.191 C40.529,39.204 40.795,39.21 41.081,39.21 C42.393,39.21 43.472,39.002 44.316,38.587 C45.797,37.859 46.537,36.56 46.537,34.689 C46.537,33.299 46.044,32.227 45.056,31.474 C44.069,30.72 42.919,30.344 41.607,30.344 C39.269,30.344 37.651,31.123 36.755,32.682 C36.261,33.539 35.982,34.761 35.917,36.346 L32.448,36.346 C32.448,34.267 32.864,32.5 33.695,31.045 C35.124,28.447 37.638,27.148 41.237,27.148 C44.082,27.148 46.284,27.781 47.843,29.048 C49.402,30.314 50.182,32.149 50.182,34.553 C50.182,36.268 49.72,37.658 48.798,38.723 C48.226,39.386 47.486,39.905 46.576,40.282 C48.044,40.685 49.191,41.461 50.016,42.611 C50.841,43.761 51.253,45.167 51.253,46.83 C51.253,49.493 50.376,51.663 48.623,53.339 C46.869,55.014 44.381,55.852 41.159,55.852 C37.859,55.852 35.465,54.946 33.978,53.134 z" fill="#FFFFFF"/>
  </g>
  <defs/>
</svg>
