<?xml version="1.0" encoding="UTF-8"?>
<!DOCTYPE svg PUBLIC "-//W3C//DTD SVG 1.1//EN" "http://www.w3.org/Graphics/SVG/1.1/DTD/svg11.dtd">
<svg version="1.1" xmlns="http://www.w3.org/2000/svg" xmlns:xlink="http://www.w3.org/1999/xlink" x="0px" y="0px" width="85" height="82" viewBox="0, 0, 85, 82">
  <g id="Layer 1">
    <path d="M43.141,67.76 C44.125,67.178 44.45,65.908 43.867,64.925 L43.851,64.898 C43.269,63.914 42,63.589 41.016,64.172 C40.033,64.754 39.708,66.023 40.29,67.007 L40.306,67.034 C40.889,68.018 42.158,68.343 43.141,67.76 z M25.151,60.37 C26.248,60.048 26.876,58.899 26.555,57.802 L26.546,57.771 C26.224,56.674 25.075,56.046 23.978,56.367 C22.881,56.689 22.252,57.839 22.574,58.935 L22.583,58.966 C22.904,60.063 24.054,60.691 25.151,60.37 z M60.915,60.404 C62.056,60.335 62.925,59.355 62.856,58.214 L62.855,58.192 C62.786,57.051 61.805,56.182 60.664,56.251 C59.524,56.319 58.654,57.3 58.723,58.441 L58.724,58.463 C58.793,59.604 59.774,60.473 60.915,60.404 z M61.858,24.004 L61.892,23.983 C62.859,23.373 63.149,22.096 62.54,21.129 C61.931,20.161 60.653,19.871 59.686,20.481 L59.652,20.502 C58.685,21.111 58.395,22.389 59.004,23.356 C59.613,24.323 60.891,24.613 61.858,24.004 z M24.774,24.275 C24.909,24.239 25.054,24.228 25.179,24.167 C26.164,23.682 26.591,22.988 26.484,21.886 C26.301,20.758 25.238,19.992 24.11,20.174 C23.975,20.21 23.831,20.221 23.705,20.283 C22.72,20.767 22.294,21.461 22.4,22.563 C22.583,23.691 23.646,24.458 24.774,24.275 z M43.227,16.694 C44.199,16.092 44.5,14.817 43.898,13.845 L43.882,13.819 C43.281,12.847 42.006,12.547 41.034,13.148 C40.062,13.749 39.761,15.025 40.362,15.997 L40.378,16.022 C40.98,16.994 42.255,17.295 43.227,16.694 z M34.484,76.522 C30.23,81.088 20.233,80.001 21.021,70.985 C15.544,74.865 5.25,68.946 9.379,61.242 C0.19,61.708 0.108,50.005 4.122,47.758 C-0.651,45.786 -2.191,36.413 4.494,34.731 C-1.625,31.466 4.176,21.07 9.314,22.493 C4.977,17.957 13.04,9.5 17.034,12.725 C15.846,9.256 18.181,5.938 20.423,4.687 C22.356,3.608 26.988,2.79 29.888,5.515 C31.517,-0.824 39.074,-1.917 43.324,3.378 C46.305,-1.303 55.032,-0.932 56.005,5.883 C61.135,1.65 69.449,6.74 67.256,12.794 C73.027,9.289 80.527,15.237 75.48,22.404 C82.724,21.746 86.095,31.273 79.249,35.112 C86.117,36.425 86.812,46.28 78.822,47.975 C85.742,52.309 80.646,62.986 73.519,60.761 C78.016,70.05 66.607,76.145 61.936,71.602 C63.265,78.518 53.702,82.392 48.242,76.679 C48.76,82.985 34.805,84.501 34.484,76.522 z" fill="#4E4E4E"/>
    <text transform="matrix(1, 0, 0, 1, 42.304, 42.138)">
      <tspan x="-36.378" y="11.5" font-family="AmericanTypewriter-Bold" font-size="36" fill="#BEBEBE">PLZ</tspan>
    </text>
  </g>
  <defs/>
</svg>
